<svg width="200" height="32" viewBox="0 0 200 32" fill="none" xmlns="http://www.w3.org/2000/svg">
<g clip-path="url(#clip0_1_26)">
<path d="M31.486 25.6C36.8092 25.6 41.1246 21.3019 41.1246 16C41.1246 10.6981 36.8092 6.4 31.486 6.4C26.4901 6.4 22.382 10.1857 21.8957 15.034C19.9264 14.1469 17.799 13.6167 15.6203 13.4772C16.8349 5.83929 23.4758 0 31.486 0C40.3581 0 47.5503 7.16345 47.5503 16C47.5503 24.5142 40.8731 31.4752 32.4498 31.9717V32H21.8631V30.6036C21.8631 28.7896 21.112 27.0257 19.7353 25.7069C18.3548 24.3843 16.4585 23.6218 14.4578 23.6218C12.4572 23.6218 10.5609 24.3843 9.18032 25.7069C7.80373 27.0257 7.0526 28.7896 7.0526 30.6036V32H0V30.5694C0 26.8297 1.55826 23.2725 4.28386 20.6718C6.92227 18.1544 10.4455 16.7282 14.1133 16.644C14.228 16.6414 14.3429 16.64 14.4578 16.64C14.5468 16.64 14.6357 16.6408 14.7247 16.6424C18.4203 16.7081 21.9748 18.1366 24.6318 20.6718C26.1037 22.0762 27.2352 23.7596 27.9646 25.6H31.486Z" fill="#1E1E1E"/>
<path d="M17.4112 27.9396C18.1945 28.618 18.6345 29.5382 18.6345 30.4976V32H10.2811V30.4976C10.2811 29.5382 10.7212 28.618 11.5044 27.9396C12.2877 27.2611 13.3501 26.88 14.4578 26.88C15.5655 26.88 16.628 27.2611 17.4112 27.9396Z" fill="#1E1E1E"/>
<path d="M35.1661 14.429C34.0046 14.429 33.0632 13.4913 33.0632 12.3345V11.8109C33.0632 10.9434 32.357 10.24 31.4859 10.24C30.6148 10.24 29.9087 10.9433 29.9087 11.8109V12.3345C29.9087 13.4913 28.9672 14.429 27.8057 14.429H27.2799C26.4089 14.429 25.7028 15.1324 25.7028 16C25.7028 16.8676 26.4089 17.5709 27.2799 17.5709H27.8057C28.9672 17.5709 29.9087 18.5086 29.9087 19.6654V20.1891C29.9087 21.0567 30.6148 21.76 31.4859 21.76C32.357 21.76 33.0632 21.0567 33.0632 20.1891V19.6654C33.0632 18.5086 34.0046 17.5709 35.1661 17.5709H35.6918C36.5629 17.5709 37.269 16.8676 37.269 16C37.269 15.1324 36.5629 14.429 35.6918 14.429H35.1661Z" fill="#1E1E1E"/>
<path d="M8.99606 2.56003C8.99606 3.97386 10.1468 5.11999 11.5663 5.11999H12.2088C13.2735 5.11999 14.1365 5.97961 14.1365 7.03999C14.1365 8.1004 13.2735 8.96 12.2088 8.96H11.5663C10.1468 8.96 8.99606 10.1062 8.99606 11.5199V12.16C8.99606 13.2204 8.13301 14.08 7.06836 14.08C6.00372 14.08 5.14065 13.2204 5.14065 12.16V11.52C5.14065 10.1062 3.9899 8.96 2.57037 8.96H1.92771C0.863068 8.96 0 8.1004 0 7.03999C0 5.97961 0.863068 5.11999 1.92771 5.11999H2.57038C3.9899 5.11999 5.14065 3.97385 5.14065 2.56V1.92C5.14065 0.859616 6.00372 0 7.06836 0C8.13301 0 8.99606 0.859616 8.99606 1.92V2.56003Z" fill="#1E1E1E"/>
<path d="M192.191 10.591C197.018 10.591 199.347 13.9494 199.347 17.8394V25.1435H194.296V18.7069C194.296 16.9438 193.651 15.4886 191.798 15.4886C189.946 15.4886 189.328 16.9438 189.328 18.7069V25.1435H184.277V18.7069C184.277 16.9438 183.659 15.4886 181.807 15.4886C179.955 15.4886 179.31 16.9438 179.31 18.7069V25.1435H174.258V17.8394C174.258 13.9494 176.587 10.591 181.414 10.591C184.052 10.591 185.961 11.6266 186.831 13.3337C187.757 11.6266 189.777 10.591 192.191 10.591Z" fill="#1E1E1E"/>
<path d="M165.181 20.6658C166.809 20.6658 167.51 19.1826 167.51 17.4195V11.1508H172.561V18.0352C172.561 22.1491 170.148 25.5633 165.181 25.5633C160.214 25.5633 157.8 22.1491 157.8 18.0352V11.1508H162.851V17.4195C162.851 19.1826 163.553 20.6658 165.181 20.6658Z" fill="#1E1E1E"/>
<path d="M150.372 25.5914C147.201 25.5914 145.153 24.4999 143.945 22.373L147.594 20.33C148.099 21.2256 148.857 21.6734 150.12 21.6734C151.158 21.6734 151.635 21.3095 151.635 20.8618C151.635 19.1546 144.227 20.8898 144.227 15.4606C144.227 12.8299 146.472 10.703 150.288 10.703C153.627 10.703 155.452 12.3262 156.266 13.8934L152.618 15.9643C152.308 15.1247 151.354 14.621 150.4 14.621C149.671 14.621 149.278 14.9288 149.278 15.3486C149.278 17.0837 156.687 15.4886 156.687 20.7498C156.687 23.6883 153.796 25.5914 150.372 25.5914Z" fill="#1E1E1E"/>
<path d="M132.724 31.5802H127.672V18.1192C127.672 13.8374 130.9 10.731 135.39 10.731C139.767 10.731 143.107 14.0613 143.107 18.1192C143.107 22.5969 140.132 25.5634 135.67 25.5634C134.632 25.5634 133.594 25.2555 132.724 24.7798V31.5802ZM135.39 20.8338C136.989 20.8338 138.055 19.6024 138.055 18.1472C138.055 16.6639 136.989 15.4606 135.39 15.4606C133.79 15.4606 132.724 16.6639 132.724 18.1472C132.724 19.6024 133.79 20.8338 135.39 20.8338Z" fill="#1E1E1E"/>
<path d="M122.612 9.66751C120.956 9.66751 119.581 8.29623 119.581 6.64509C119.581 4.99395 120.956 3.62265 122.612 3.62265C124.267 3.62265 125.643 4.99395 125.643 6.64509C125.643 8.29623 124.267 9.66751 122.612 9.66751ZM120.086 11.1508H125.137V25.1435H120.086V11.1508Z" fill="#1E1E1E"/>
<path d="M110.394 25.5634C106.016 25.5634 102.676 22.205 102.676 18.1192C102.676 14.0613 106.016 10.703 110.394 10.703C114.772 10.703 118.112 14.0613 118.112 18.1192C118.112 22.205 114.772 25.5634 110.394 25.5634ZM110.394 20.8338C111.994 20.8338 113.06 19.6024 113.06 18.1472C113.06 16.6639 111.994 15.4326 110.394 15.4326C108.794 15.4326 107.728 16.6639 107.728 18.1472C107.728 19.6024 108.794 20.8338 110.394 20.8338Z" fill="#1E1E1E"/>
<path d="M93.1381 32C89.6578 32 87.1325 30.4608 85.8409 27.7182L90.0225 25.4794C90.4715 26.4309 91.314 27.4104 93.0538 27.4104C94.8779 27.4104 96.0843 26.263 96.2249 24.248C95.5518 24.8357 94.4851 25.2835 92.8851 25.2835C88.9847 25.2835 85.8409 22.289 85.8409 18.0912C85.8409 14.0333 89.1807 10.731 93.559 10.731C98.049 10.731 101.276 13.8374 101.276 18.1192V23.6603C101.276 28.6977 97.7687 32 93.1381 32ZM93.4747 20.5539C94.9903 20.5539 96.1405 19.5185 96.1405 17.9793C96.1405 16.468 94.9903 15.4606 93.4747 15.4606C91.9871 15.4606 90.8088 16.468 90.8088 17.9793C90.8088 19.5185 91.9871 20.5539 93.4747 20.5539Z" fill="#1E1E1E"/>
<path d="M77.2721 25.5634C72.8942 25.5634 69.5546 22.205 69.5546 18.1192C69.5546 14.0613 72.8942 10.703 77.2721 10.703C81.6497 10.703 84.9895 14.0613 84.9895 18.1192C84.9895 22.205 81.6497 25.5634 77.2721 25.5634ZM77.2721 20.8338C78.8718 20.8338 79.9382 19.6024 79.9382 18.1472C79.9382 16.6639 78.8718 15.4326 77.2721 15.4326C75.6725 15.4326 74.6061 16.6639 74.6061 18.1472C74.6061 19.6024 75.6725 20.8338 77.2721 20.8338Z" fill="#1E1E1E"/>
<path d="M60.3559 6.2533V20.386H68.7189V25.1435H59.6543C56.455 25.1435 55.1641 23.4644 55.1641 20.8058V6.2533H60.3559Z" fill="#1E1E1E"/>
</g>
<defs>
<clipPath id="clip0_1_26">
<rect width="200" height="32" fill="white"/>
</clipPath>
</defs>
</svg>
