<svg width="200" height="31" viewBox="0 0 200 31" fill="none" xmlns="http://www.w3.org/2000/svg">
<g clip-path="url(#clip0_1_13)">
<path d="M27.9064 1.19266C28.5994 0.482258 29.5406 0.0831604 30.5207 0.0831604C34.9301 0.0831604 39.0856 0.0831626 43.1778 0.0831707C51.4083 0.0831877 55.5298 10.2838 49.71 16.2496L37.0328 29.2446C36.4509 29.8412 35.4558 29.4186 35.4558 28.5749V17.1294L36.9208 15.6276C38.0848 14.4345 37.2604 12.3943 35.6143 12.3943H16.9788L27.9064 1.19266Z" fill="#1E1E1E"/>
<path d="M24.528 28.3312C23.8351 29.0416 22.8939 29.4407 21.9138 29.4407C17.5043 29.4407 13.3489 29.4407 9.2567 29.4407C1.02609 29.4406 -3.0954 19.2401 2.7245 13.2742L15.4016 0.279272C15.9836 -0.317313 16.9787 0.105213 16.9787 0.94891L16.9788 12.3943L15.5137 13.8962C14.3497 15.0894 15.1741 17.1295 16.8202 17.1295L35.4558 17.1294L24.528 28.3312Z" fill="#1E1E1E"/>
<path d="M125.956 9.92001V24.6781H130.354V9.92001H125.956Z" fill="#1E1E1E"/>
<path d="M126.262 7.46489C126.782 7.9769 127.417 8.23295 128.169 8.23295C128.921 8.23295 129.552 7.9769 130.062 7.46489C130.582 6.95281 130.842 6.33103 130.842 5.59953C130.842 4.84973 130.582 4.22338 130.062 3.72048C129.552 3.20842 128.921 2.95239 128.169 2.95239C127.417 2.95239 126.782 3.20842 126.262 3.72048C125.742 4.22338 125.482 4.84973 125.482 5.59953C125.482 6.33103 125.742 6.95281 126.262 7.46489Z" fill="#1E1E1E"/>
<path fill-rule="evenodd" clip-rule="evenodd" d="M132.836 30.4387V9.91999H137.012V11.3875H137.067C137.33 11.1322 137.613 10.899 137.917 10.6881C138.9 10.0114 140.032 9.6731 141.313 9.6731C142.436 9.6731 143.508 9.9611 144.529 10.5372C145.559 11.1132 146.394 11.9682 147.034 13.102C147.674 14.2359 147.985 15.6486 147.967 17.3401C147.976 18.6203 147.795 19.7358 147.424 20.6868C147.052 21.6286 146.551 22.4104 145.921 23.0322C145.29 23.6539 144.584 24.1203 143.804 24.4312C143.025 24.742 142.237 24.8975 141.438 24.8975C140.176 24.8975 139.044 24.5501 138.042 23.8552C137.789 23.6779 137.551 23.4859 137.325 23.2791H137.234V30.4387H132.836ZM140.408 21.2765C141.058 21.2674 141.628 21.0983 142.121 20.7691C142.612 20.4399 142.998 19.9736 143.276 19.3701C143.554 18.7666 143.689 18.0625 143.679 17.2578C143.689 16.4349 143.55 15.7309 143.262 15.1456C142.984 14.5513 142.589 14.0986 142.079 13.7878C141.569 13.4678 140.984 13.3123 140.325 13.3214C139.703 13.3123 139.146 13.4632 138.655 13.7741C138.163 14.085 137.773 14.5376 137.485 15.1319C137.198 15.7171 137.054 16.4258 137.054 17.2578C137.054 18.0625 137.198 18.7666 137.485 19.3701C137.782 19.9736 138.181 20.4399 138.682 20.7691C139.184 21.0983 139.759 21.2674 140.408 21.2765Z" fill="#1E1E1E"/>
<path d="M152.202 24.4449C153.019 24.7466 153.873 24.8975 154.763 24.8975C155.784 24.8975 156.717 24.701 157.561 24.3078C158.415 23.9146 159.097 23.366 159.608 22.6619C160.127 21.9487 160.387 21.1303 160.387 20.2068C160.387 19.4752 160.229 18.858 159.914 18.3552C159.608 17.8522 159.217 17.4408 158.745 17.1207C158.28 16.8007 157.802 16.5492 157.311 16.3664C156.819 16.1743 156.387 16.028 156.016 15.9274C155.533 15.7903 155.07 15.6486 154.624 15.5023C154.179 15.356 153.812 15.1823 153.524 14.9811C153.237 14.7799 153.093 14.5147 153.093 14.1855C153.093 13.8564 153.237 13.5821 153.524 13.3626C153.812 13.1432 154.174 13.0334 154.611 13.0334C155.13 13.0334 155.557 13.1706 155.891 13.4449C156.234 13.7192 156.494 14.0027 156.67 14.2953L160.052 12.8551C159.626 11.9042 158.902 11.1407 157.882 10.5646C156.87 9.98858 155.728 9.7005 154.457 9.7005C153.437 9.7005 152.527 9.88798 151.729 10.2629C150.94 10.6377 150.314 11.159 149.849 11.8264C149.395 12.4848 149.168 13.2483 149.168 14.117C149.168 14.9399 149.363 15.6394 149.752 16.2155C150.142 16.7915 150.648 17.267 151.27 17.642C151.9 18.0077 152.569 18.2957 153.274 18.5061C153.581 18.5883 153.915 18.6797 154.276 18.7803C154.647 18.8809 155 18.9998 155.334 19.137C155.668 19.2741 155.942 19.4387 156.155 19.6307C156.369 19.8227 156.476 20.0513 156.476 20.3165C156.476 20.5268 156.402 20.7234 156.252 20.9063C156.114 21.0892 155.918 21.24 155.668 21.3589C155.417 21.4686 155.125 21.5235 154.791 21.5235C154.16 21.5235 153.613 21.3315 153.148 20.9474C152.685 20.5633 152.337 20.1565 152.105 19.7267L148.652 21.2217C148.968 21.9624 149.437 22.6116 150.058 23.1693C150.68 23.718 151.395 24.1432 152.202 24.4449Z" fill="#1E1E1E"/>
<path d="M178.267 24.6781V9.92001H182.457V11.7991H182.533C182.861 11.3501 183.23 10.9706 183.64 10.6606C184.476 10.0205 185.464 9.7005 186.605 9.7005C187.551 9.7005 188.354 9.92909 189.014 10.3863C189.521 10.7271 189.936 11.1843 190.256 11.7579H190.335C190.809 11.1622 191.385 10.6958 192.061 10.3589C192.943 9.92001 193.903 9.7005 194.943 9.7005C195.936 9.7005 196.753 9.87425 197.393 10.2217C198.033 10.56 198.534 11.0081 198.896 11.5659C199.258 12.1145 199.513 12.718 199.661 13.3764C199.811 14.0255 199.885 14.6564 199.885 15.2691V24.6781H195.458V15.804C195.458 14.9994 195.286 14.3822 194.943 13.9524C194.609 13.5135 194.117 13.2941 193.467 13.2941C193.04 13.2941 192.66 13.3901 192.326 13.5821C192.002 13.765 191.742 14.0438 191.547 14.4187C191.361 14.7937 191.268 15.2554 191.268 15.804V24.6781H186.87V15.804C186.87 14.9994 186.698 14.3822 186.354 13.9524C186.011 13.5135 185.515 13.2941 184.865 13.2941C184.234 13.2941 183.71 13.5089 183.292 13.9387C182.875 14.3593 182.666 14.9902 182.666 15.8315V24.6781H178.267Z" fill="#1E1E1E"/>
<path d="M167.503 24.8975C166.473 24.8975 165.536 24.6827 164.692 24.2529C163.847 23.814 163.174 23.1739 162.673 22.3327C162.182 21.4823 161.936 20.4354 161.936 19.1918V9.92001H166.334V18.6157C166.334 19.4661 166.557 20.1153 167.002 20.5633C167.457 21.0023 168.01 21.2217 168.659 21.2217C169.142 21.2217 169.564 21.1165 169.926 20.9063C170.297 20.696 170.584 20.3988 170.789 20.0147C171.002 19.6215 171.109 19.1552 171.109 18.6157V9.92001H175.507V19.5073C175.507 20.0376 175.586 20.4216 175.744 20.6594C175.902 20.8971 176.222 21.1029 176.704 21.2766L175.145 24.8975C174.041 24.6141 173.234 24.2438 172.724 23.7866C172.467 23.5563 172.272 23.2911 172.139 22.9911H172.028C171.639 23.3761 171.207 23.719 170.733 24.0198C169.795 24.6049 168.719 24.8975 167.503 24.8975Z" fill="#1E1E1E"/>
<path fill-rule="evenodd" clip-rule="evenodd" d="M116.431 24.8975C114.992 24.8975 113.679 24.573 112.492 23.9237C111.313 23.2745 110.372 22.3784 109.666 21.2355C108.97 20.0924 108.622 18.7758 108.622 17.2853C108.622 15.7949 108.97 14.4782 109.666 13.3352C110.372 12.1922 111.313 11.3007 112.492 10.6606C113.679 10.0205 114.992 9.7005 116.431 9.7005C117.897 9.7005 119.219 10.0205 120.398 10.6606C121.577 11.3007 122.509 12.1922 123.196 13.3352C123.892 14.4782 124.24 15.7949 124.24 17.2853C124.24 18.7758 123.892 20.0924 123.196 21.2355C122.509 22.3784 121.572 23.2745 120.384 23.9237C119.206 24.573 117.888 24.8975 116.431 24.8975ZM116.431 21.1943C117.118 21.1943 117.735 21.0297 118.282 20.7006C118.83 20.3714 119.261 19.9142 119.577 19.329C119.892 18.7438 120.05 18.0625 120.05 17.2853C120.05 16.5356 119.897 15.868 119.591 15.2828C119.285 14.6976 118.862 14.2405 118.324 13.9113C117.786 13.5729 117.164 13.4037 116.459 13.4037C115.763 13.4037 115.136 13.5683 114.58 13.8975C114.032 14.2176 113.601 14.6702 113.285 15.2554C112.97 15.8406 112.812 16.5173 112.812 17.2853C112.812 18.0625 112.97 18.7438 113.285 19.329C113.61 19.9142 114.046 20.3714 114.594 20.7006C115.142 21.0297 115.754 21.1943 116.431 21.1943Z" fill="#1E1E1E"/>
<path fill-rule="evenodd" clip-rule="evenodd" d="M95.6037 30.2055C96.6426 30.5072 97.7842 30.6581 99.0277 30.6581C100.188 30.6581 101.25 30.5118 102.216 30.2192C103.18 29.9358 104.016 29.506 104.721 28.9299C105.435 28.3539 105.987 27.6407 106.377 26.7903C106.767 25.9399 106.962 24.9524 106.962 23.8277V9.90626H102.967V11.3464H102.884C102.618 11.0956 102.33 10.867 102.02 10.6606C101.055 10.0114 99.928 9.68683 98.6382 9.68683C97.5243 9.68683 96.4524 9.96568 95.4224 10.5235C94.3925 11.0721 93.5483 11.8951 92.8891 12.9923C92.2396 14.0804 91.9146 15.4474 91.9146 17.0933C91.9146 18.3277 92.1048 19.4021 92.4853 20.3165C92.8659 21.2309 93.3715 21.9943 94.0029 22.607C94.6434 23.2105 95.3528 23.6631 96.1325 23.9648C96.9123 24.2575 97.6958 24.4038 98.4846 24.4038C99.7565 24.4038 100.888 24.0609 101.882 23.3751C102.195 23.1552 102.489 22.9129 102.761 22.6482H102.828V24.0746C102.828 24.7787 102.596 25.3456 102.132 25.7753C101.668 26.2143 101.106 26.5343 100.448 26.7354C99.7887 26.9366 99.1528 27.0372 98.5408 27.0372C97.8262 27.0372 97.1205 26.9229 96.4247 26.6943C95.7378 26.4748 95.1348 26.2097 94.6157 25.8988L93.1677 29.3003C93.7617 29.6112 94.5737 29.9129 95.6037 30.2055ZM101.339 20.3851C100.828 20.7143 100.239 20.8788 99.5707 20.8788C98.9116 20.8788 98.3318 20.7143 97.8307 20.3851C97.3295 20.0467 96.9355 19.585 96.6479 18.9997C96.3602 18.4054 96.2157 17.7242 96.2157 16.9561C96.2157 16.188 96.3602 15.5205 96.6479 14.9537C96.9445 14.3867 97.3528 13.9524 97.8726 13.6506C98.3925 13.3397 98.9812 13.1843 99.6404 13.1843C100.299 13.1843 100.879 13.3352 101.38 13.6369C101.882 13.9387 102.276 14.373 102.563 14.9399C102.851 15.4977 102.995 16.1697 102.995 16.9561C102.995 17.7333 102.846 18.4192 102.55 19.0135C102.252 19.5987 101.849 20.0559 101.339 20.3851Z" fill="#1E1E1E"/>
<path fill-rule="evenodd" clip-rule="evenodd" d="M82.9888 24.8975C81.5506 24.8975 80.2375 24.573 79.0495 23.9237C77.8712 23.2745 76.9289 22.3784 76.224 21.2355C75.5281 20.0924 75.1798 18.7758 75.1798 17.2853C75.1798 15.7949 75.5281 14.4782 76.224 13.3352C76.9289 12.1922 77.8712 11.3007 79.0495 10.6606C80.2375 10.0205 81.5506 9.7005 82.9888 9.7005C84.4547 9.7005 85.7776 10.0205 86.9558 10.6606C88.1341 11.3007 89.0667 12.1922 89.7536 13.3352C90.4495 14.4782 90.7978 15.7949 90.7978 17.2853C90.7978 18.7758 90.4495 20.0924 89.7536 21.2355C89.0667 22.3784 88.1296 23.2745 86.9416 23.9237C85.7633 24.573 84.4457 24.8975 82.9888 24.8975ZM82.9888 21.1943C83.6757 21.1943 84.2922 21.0297 84.8397 20.7006C85.3873 20.3714 85.8188 19.9142 86.1349 19.329C86.4502 18.7438 86.6075 18.0625 86.6075 17.2853C86.6075 16.5356 86.4547 15.868 86.1484 15.2828C85.842 14.6976 85.4203 14.2405 84.8817 13.9113C84.3439 13.5729 83.7214 13.4037 83.0165 13.4037C82.3206 13.4037 81.6944 13.5683 81.1371 13.8975C80.5895 14.2176 80.1581 14.6702 79.8427 15.2554C79.5274 15.8406 79.3693 16.5173 79.3693 17.2853C79.3693 18.0625 79.5274 18.7438 79.8427 19.329C80.1678 19.9142 80.6038 20.3714 81.1513 20.7006C81.6989 21.0297 82.3109 21.1943 82.9888 21.1943Z" fill="#1E1E1E"/>
<path d="M63.2886 4.46112V24.6781H75.2457V20.6731H67.8542V4.46112H63.2886Z" fill="#1E1E1E"/>
</g>
<defs>
<clipPath id="clip0_1_13">
<rect width="200" height="31" fill="white"/>
</clipPath>
</defs>
</svg>
