<svg width="200" height="33" viewBox="0 0 200 33" fill="none" xmlns="http://www.w3.org/2000/svg">
<g clip-path="url(#clip0_1_2)">
<path d="M175.082 26.5054V10.0779H179.448V13.0019H179.657C180.005 12.0321 180.585 11.2681 181.4 10.7097C182.215 10.1514 183.184 9.87216 184.306 9.87216C185.449 9.87216 186.418 10.1563 187.212 10.7244C188.017 11.2828 188.554 12.042 188.822 13.0019H189.001C189.339 12.0518 189.954 11.2926 190.849 10.7244C191.743 10.1563 192.796 9.87216 194.008 9.87216C195.558 9.87216 196.82 10.3571 197.793 11.3269C198.777 12.2966 199.269 13.673 199.269 15.4558V26.5054H194.649V16.3668C194.649 15.4459 194.401 14.7603 193.904 14.3097C193.417 13.859 192.806 13.6338 192.071 13.6338C191.236 13.6338 190.58 13.8982 190.104 14.4272C189.637 14.9464 189.403 15.6321 189.403 16.4843V26.5054H184.932V16.2492C184.932 15.4558 184.699 14.8239 184.232 14.3537C183.765 13.8738 183.154 13.6338 182.399 13.6338C181.882 13.6338 181.42 13.7611 181.013 14.0158C180.606 14.2705 180.282 14.6231 180.044 15.0738C179.806 15.5145 179.687 16.0435 179.687 16.6607V26.5054H175.082Z" fill="#1E1E1E"/>
<path d="M168.513 19.5259V10.0779H173.118V26.5054H168.691V23.5226H168.513C168.135 24.4728 167.514 25.2466 166.65 25.8442C165.785 26.432 164.727 26.7209 163.476 26.7111C162.362 26.7111 161.38 26.4662 160.525 25.9764C159.68 25.4768 159.02 24.7667 158.543 23.8458C158.076 22.925 157.842 21.823 157.842 20.5398V10.0779H162.447V19.7463C162.447 20.7063 162.71 21.4704 163.238 22.0385C163.764 22.5969 164.464 22.8712 165.339 22.8614C165.895 22.8614 166.411 22.7389 166.888 22.494C167.365 22.2393 167.753 21.8622 168.051 21.3626C168.358 20.863 168.513 20.2508 168.513 19.5259Z" fill="#1E1E1E"/>
<path d="M156.281 14.7652L152.063 15.0149C151.953 14.4958 151.66 14.0501 151.184 13.6779C150.707 13.2958 150.066 13.1048 149.261 13.1048C148.546 13.1048 147.945 13.2518 147.458 13.5456C146.981 13.8395 146.743 14.2313 146.743 14.7211C146.743 15.113 146.897 15.4509 147.205 15.735C147.522 16.0093 148.064 16.2247 148.829 16.3815L151.855 16.9693C153.474 17.2925 154.681 17.8165 155.476 18.5414C156.271 19.2663 156.668 20.2214 156.668 21.4067C156.668 22.494 156.35 23.4443 155.714 24.2573C155.078 25.0605 154.204 25.6924 153.091 26.1528C151.979 26.6033 150.702 26.8287 149.261 26.8287C147.056 26.8287 145.297 26.3731 143.986 25.4622C142.684 24.5511 141.924 23.3168 141.706 21.7593L146.221 21.5242C146.371 22.1903 146.708 22.6948 147.234 23.0377C147.762 23.3805 148.437 23.5519 149.261 23.5519C150.066 23.5519 150.717 23.3952 151.214 23.0817C151.72 22.7683 151.974 22.3716 151.974 21.8916C151.974 21.0786 151.259 20.53 149.828 20.2459L146.952 19.6582C145.332 19.3349 144.125 18.7814 143.33 17.9978C142.536 17.2141 142.138 16.21 142.138 14.9856C142.138 13.9276 142.431 13.0167 143.017 12.2526C143.603 11.4885 144.423 10.9007 145.476 10.4893C146.54 10.0779 147.781 9.87216 149.202 9.87216C151.308 9.87216 152.962 10.313 154.164 11.1947C155.376 12.0664 156.082 13.2566 156.281 14.7652Z" fill="#1E1E1E"/>
<path d="M124.973 32.6473V10.0779H129.504V12.855H129.712C129.921 12.4044 130.219 11.9489 130.606 11.4885C130.993 11.0281 131.5 10.6461 132.126 10.3424C132.753 10.029 133.527 9.87216 134.451 9.87216C135.673 9.87216 136.791 10.1857 137.804 10.8126C138.828 11.4297 139.647 12.3652 140.263 13.6191C140.879 14.8729 141.187 16.4403 141.187 18.321C141.187 20.143 140.889 21.6858 140.293 22.9495C139.697 24.2034 138.887 25.1536 137.864 25.8001C136.851 26.4466 135.708 26.7698 134.436 26.7698C133.542 26.7698 132.782 26.623 132.156 26.3291C131.531 26.0352 131.019 25.6679 130.621 25.2271C130.233 24.7764 129.931 24.3258 129.712 23.8753H129.578V32.6473H124.973ZM132.975 23.1552C133.731 23.1552 134.366 22.9495 134.883 22.5381C135.4 22.1267 135.793 21.5585 136.06 20.8336C136.329 20.0989 136.463 19.2566 136.463 18.3063C136.463 17.3562 136.329 16.5235 136.06 15.8085C135.802 15.0835 135.415 14.5154 134.898 14.104C134.381 13.6925 133.74 13.4869 132.975 13.4869C132.231 13.4869 131.595 13.6876 131.069 14.0892C130.552 14.4811 130.154 15.0395 129.876 15.7644C129.608 16.4794 129.473 17.3268 129.473 18.3063C129.473 19.2761 129.613 20.1235 129.891 20.8484C130.169 21.5732 130.566 22.1414 131.083 22.5528C131.61 22.9544 132.241 23.1552 132.975 23.1552Z" fill="#1E1E1E"/>
<path d="M118.404 26.5054V10.0779H123.009V26.5054H118.404ZM120.699 7.97671C120.013 7.97671 119.427 7.7514 118.94 7.3008C118.454 6.85019 118.211 6.30653 118.211 5.66981C118.211 5.03308 118.454 4.49431 118.94 4.0535C119.427 3.6029 120.013 3.37759 120.699 3.37759C121.394 3.37759 121.985 3.6029 122.473 4.0535C122.959 4.49431 123.202 5.03308 123.202 5.66981C123.202 6.30653 122.959 6.85019 122.473 7.3008C121.985 7.7514 121.394 7.97671 120.699 7.97671Z" fill="#1E1E1E"/>
<path d="M108.929 26.8287C107.25 26.8287 105.794 26.476 104.562 25.7707C103.34 25.0556 102.397 24.0663 101.731 22.8026C101.075 21.5291 100.748 20.05 100.748 18.3652C100.748 16.6607 101.075 15.1766 101.731 13.913C102.397 12.6395 103.34 11.6501 104.562 10.9448C105.794 10.2298 107.25 9.87216 108.929 9.87216C110.618 9.87216 112.073 10.2298 113.295 10.9448C114.527 11.6501 115.471 12.6395 116.127 13.913C116.793 15.1766 117.126 16.6607 117.126 18.3652C117.126 20.05 116.793 21.5291 116.127 22.8026C115.471 24.0663 114.527 25.0556 113.295 25.7707C112.073 26.476 110.618 26.8287 108.929 26.8287ZM108.958 23.2728C109.724 23.2728 110.365 23.0622 110.881 22.641C111.398 22.21 111.785 21.6222 112.043 20.8777C112.312 20.1332 112.446 19.2859 112.446 18.3357C112.446 17.3757 112.312 16.5284 112.043 15.7937C111.785 15.059 111.398 14.4811 110.881 14.0599C110.365 13.6387 109.724 13.428 108.958 13.428C108.184 13.428 107.533 13.6387 107.007 14.0599C106.49 14.4811 106.097 15.059 105.829 15.7937C105.571 16.5284 105.442 17.3757 105.442 18.3357C105.442 19.2859 105.571 20.1332 105.829 20.8777C106.097 21.6222 106.49 22.21 107.007 22.641C107.533 23.0622 108.184 23.2728 108.958 23.2728Z" fill="#1E1E1E"/>
<path d="M91.3469 33C89.1012 33 87.3428 32.5592 86.071 31.6775C84.7992 30.8058 84.0245 29.7184 83.7461 28.4156L88.009 27.8572C88.1379 28.1903 88.3412 28.4988 88.6196 28.7829C88.8979 29.067 89.2702 29.2923 89.7371 29.4588C90.2041 29.6351 90.7755 29.7233 91.4514 29.7233C92.4547 29.7233 93.2841 29.4833 93.9396 29.0033C94.5959 28.5331 94.9232 27.7347 94.9232 26.6082V23.5961H94.7298C94.5306 24.0466 94.2277 24.4776 93.8204 24.8891C93.413 25.3005 92.8914 25.6336 92.2555 25.8883C91.6196 26.1429 90.8596 26.2703 89.9755 26.2703C88.7241 26.2703 87.5861 25.9862 86.5632 25.4181C85.5494 24.8402 84.7347 23.9585 84.1192 22.7732C83.5126 21.5879 83.2098 20.0892 83.2098 18.2769C83.2098 16.406 83.5175 14.8485 84.1339 13.6044C84.76 12.3603 85.5845 11.4297 86.6073 10.8126C87.631 10.1857 88.7535 9.87216 89.9755 9.87216C90.9094 9.87216 91.6898 10.029 92.3151 10.3424C92.951 10.6461 93.4677 11.0281 93.8653 11.4885C94.2628 11.9489 94.5608 12.4044 94.7592 12.855H94.9379V10.0779H99.4832V26.6817C99.4832 28.0727 99.1355 29.2384 98.4408 30.1788C97.7453 31.1192 96.7861 31.8245 95.5641 32.2947C94.342 32.7649 92.9363 33 91.3469 33ZM91.4359 22.8467C92.5486 22.8467 93.4081 22.4402 94.0147 21.6271C94.6302 20.8141 94.9379 19.6876 94.9379 18.2476C94.9379 17.2876 94.7992 16.4549 94.5208 15.7496C94.253 15.0346 93.8604 14.4811 93.3437 14.0892C92.8269 13.6876 92.191 13.4869 91.4359 13.4869C90.6808 13.4869 90.04 13.6925 89.5135 14.104C88.9967 14.5056 88.6049 15.0639 88.3363 15.779C88.0686 16.4941 87.9339 17.317 87.9339 18.2476C87.9339 19.188 88.0686 20.0059 88.3363 20.7014C88.6049 21.3871 88.9967 21.9161 89.5135 22.2883C90.04 22.6605 90.6808 22.8467 91.4359 22.8467Z" fill="#1E1E1E"/>
<path d="M74.4203 26.8287C72.7413 26.8287 71.2858 26.476 70.0539 25.7707C68.8318 25.0556 67.888 24.0663 67.2224 22.8026C66.5667 21.5291 66.2388 20.05 66.2388 18.3652C66.2388 16.6607 66.5667 15.1766 67.2224 13.913C67.888 12.6395 68.8318 11.6501 70.0539 10.9448C71.2858 10.2298 72.7413 9.87216 74.4203 9.87216C76.1093 9.87216 77.5648 10.2298 78.7868 10.9448C80.0188 11.6501 80.9626 12.6395 81.6184 13.913C82.2841 15.1766 82.6171 16.6607 82.6171 18.3652C82.6171 20.05 82.2841 21.5291 81.6184 22.8026C80.9626 24.0663 80.0188 25.0556 78.7868 25.7707C77.5648 26.476 76.1093 26.8287 74.4203 26.8287ZM74.4501 23.2728C75.2152 23.2728 75.856 23.0622 76.3726 22.641C76.8892 22.21 77.2767 21.6222 77.535 20.8777C77.8033 20.1332 77.9374 19.2859 77.9374 18.3357C77.9374 17.3757 77.8033 16.5284 77.535 15.7937C77.2767 15.059 76.8892 14.4811 76.3726 14.0599C75.856 13.6387 75.2152 13.428 74.4501 13.428C73.6753 13.428 73.0245 13.6387 72.4979 14.0599C71.9813 14.4811 71.5888 15.059 71.3206 15.7937C71.0623 16.5284 70.9331 17.3757 70.9331 18.3357C70.9331 19.2859 71.0623 20.1332 71.3206 20.8777C71.5888 21.6222 71.9813 22.21 72.4979 22.641C73.0245 23.0622 73.6753 23.2728 74.4501 23.2728Z" fill="#1E1E1E"/>
<path d="M51.4286 26.5054V4.61188H56.108V22.685H65.6308V26.5054H51.4286Z" fill="#1E1E1E"/>
<path d="M30.5263 32.1951C35.7775 32.0896 40 27.8547 40 22.6484C40 20.1164 38.9806 17.6882 37.1659 15.8978L21.0527 0V9.88157C21.0527 11.5341 21.718 13.1191 22.9025 14.2877L26.6771 18.0119L26.6874 18.0218L33.0165 24.2663C33.222 24.469 33.222 24.7978 33.0165 25.0006C32.811 25.2034 32.4777 25.2034 32.2722 25.0006L30.0906 22.8482H9.90939L7.7278 25.0006C7.52225 25.2034 7.18901 25.2034 6.98348 25.0006C6.77794 24.7978 6.77794 24.469 6.98347 24.2663L13.3126 18.0218L13.3229 18.0119L17.0975 14.2877C18.282 13.1191 18.9473 11.5341 18.9473 9.88157V0L2.83408 15.8978C1.01944 17.6882 0 20.1164 0 22.6484C0 27.8547 4.22247 32.0896 9.47371 32.1951H30.5263Z" fill="#1E1E1E"/>
</g>
<defs>
<clipPath id="clip0_1_2">
<rect width="200" height="33" fill="white"/>
</clipPath>
</defs>
</svg>
